# xmcd CD database file
#
# Track frame offsets:
#	150
#	20671
#	36939
#	58522
#	73438
#	90456
#	112470
#	130687
#	150751
#	173437
#	193274
#	218487
#	247513
#	265930
#	286586
#	295105
#
# Disc length: 4245 seconds
#
# Revision: 0
# Processed by: cddbd v1.5.1PL0 Copyright (c) Steve Scherf et al.
# Submitted via: CDex 1.51
#
DISCID=db109310
DTITLE=Various Artist - MY MEMORIES 4
DYEAR=2003
DGENRE=Pop
TTITLE0=RCサクセション／トランジスタ・ラジオ
TTITLE1=町田義人／戦士の休息
TTITLE2=大塚博堂／ダスティン・ホフマンになれなかったよ
TTITLE3=庄野真代／飛んでイスタンブール
TTITLE4=高田みづえ／私はピアノ
TTITLE5=沢田知可子／会いたい
TTITLE6=もんた＆ブラザーズ／ダンシング・オールナイト
TTITLE7=浜田麻里／Return to Myself〜しない、しない、ナツ。
TTITLE8=松山千春／長い夜(New Version)
TTITLE9=中村雅俊／恋人も濡れる街角
TTITLE10=BEGIN／恋しくて
TTITLE11=PERSONZ／Dear Friends(Album Version)
TTITLE12=山下久美子／バスルームから愛をこめて
TTITLE13=RCサクセション／スローバラード
TTITLE14=井上堯之バンド／傷だらけの天使
TTITLE15=萩原健一／酒と泪と男と女(ライヴ・ヴァージョン)
EXTD=YEAR: 2003
EXTT0=
EXTT1=
EXTT2=
EXTT3=
EXTT4=
EXTT5=
EXTT6=
EXTT7=
EXTT8=
EXTT9=
EXTT10=
EXTT11=
EXTT12=
EXTT13=
EXTT14=
EXTT15=
PLAYORDER=
